<?xml version="1.0" standalone="no"?>
<!DOCTYPE svg PUBLIC "-//W3C//DTD SVG 20010904//EN"
 "http://www.w3.org/TR/2001/REC-SVG-20010904/DTD/svg10.dtd">
<svg version="1.0" xmlns="http://www.w3.org/2000/svg"
 width="598.000000pt" height="598.000000pt" viewBox="0 0 598.000000 598.000000"
 preserveAspectRatio="xMidYMid meet">
<metadata>
Created by potrace 1.14, written by Peter Selinger 2001-2017
</metadata>
<g transform="translate(0.000000,598.000000) scale(0.100000,-0.100000)"
fill="#000000" stroke="none">
<path d="M2748 5663 c-27 -2 -48 -8 -48 -13 0 -5 -7 -7 -15 -4 -37 15 -334
-57 -495 -119 -251 -96 -544 -282 -705 -447 -33 -34 -71 -71 -84 -83 -48 -44
-171 -198 -235 -295 -111 -169 -217 -399 -270 -588 -185 -662 -58 -1361 343
-1889 42 -55 314 -377 367 -435 13 -14 71 -82 130 -152 59 -70 111 -125 117
-121 6 3 7 2 4 -4 -4 -6 174 -221 395 -479 220 -258 446 -522 501 -587 108
-127 149 -157 218 -157 62 0 103 25 170 104 33 39 70 82 83 96 88 96 796 931
796 940 0 5 4 10 9 10 11 0 171 186 171 200 0 5 4 10 9 10 11 0 429 491 516
606 214 286 359 670 392 1042 7 75 9 232 4 367 -4 140 -80 513 -102 499 -5 -3
-6 1 -3 9 17 45 -158 407 -282 584 -123 175 -349 413 -377 396 -6 -3 -7 -1 -3
5 15 25 -302 235 -474 315 -180 83 -432 154 -643 182 -108 14 -360 18 -489 8z"/>
</g>
</svg>
